<?xml version="1.0" encoding="UTF-8" standalone="no"?>
<!DOCTYPE svg PUBLIC "-//W3C//DTD SVG 1.1//EN"
 "http://www.w3.org/Graphics/SVG/1.1/DTD/svg11.dtd">
<!-- Generated by graphviz version 2.28.0 (20111211.2114)
 -->
<!-- Title: QpidLanguages Pages: 1 -->
<svg width="216pt" height="209pt"
 viewBox="0.00 0.00 215.55 209.07" xmlns="http://www.w3.org/2000/svg" xmlns:xlink="http://www.w3.org/1999/xlink">
<g id="graph1" class="graph" transform="scale(1 1) rotate(0) translate(4 205.068)">
<title>QpidLanguages</title>
<polygon fill="white" stroke="white" points="-4,5 -4,-205.068 212.546,-205.068 212.546,5 -4,5"/>
<!-- Broker -->
<g id="node1" class="node"><title>Broker</title>
<ellipse fill="none" stroke="black" cx="100.195" cy="-100.514" rx="45.4433" ry="26.7407"/>
<text text-anchor="middle" x="100.195" y="-104.314" font-family="Times,serif" font-size="14.00">Message</text>
<text text-anchor="middle" x="100.195" y="-89.3135" font-family="Times,serif" font-size="14.00">Broker</text>
</g>
<!-- Cpp -->
<g id="node2" class="node"><title>Cpp</title>
<ellipse fill="none" stroke="black" cx="171.589" cy="-59.0082" rx="26.949" ry="18"/>
<text text-anchor="middle" x="171.589" y="-55.3082" font-family="Times,serif" font-size="14.00">C++</text>
</g>
<!-- Broker&#45;&#45;Cpp -->
<g id="edge2" class="edge"><title>Broker&#45;&#45;Cpp</title>
<path fill="none" stroke="black" d="M132.967,-81.4615C139.125,-77.8813 145.4,-74.2332 151.052,-70.9471"/>
</g>
<!-- Java -->
<g id="node5" class="node"><title>Java</title>
<ellipse fill="none" stroke="black" cx="100.03" cy="-18" rx="27" ry="18"/>
<text text-anchor="middle" x="100.03" y="-14.3" font-family="Times,serif" font-size="14.00">Java</text>
</g>
<!-- Broker&#45;&#45;Java -->
<g id="edge4" class="edge"><title>Broker&#45;&#45;Java</title>
<path fill="none" stroke="black" d="M100.141,-73.4955C100.116,-61.2753 100.088,-47.1554 100.066,-36.2165"/>
</g>
<!-- Ruby -->
<g id="node7" class="node"><title>Ruby</title>
<ellipse fill="none" stroke="black" cx="29.4487" cy="-142.962" rx="29.3479" ry="18"/>
<text text-anchor="middle" x="29.4487" y="-139.262" font-family="Times,serif" font-size="14.00">Ruby</text>
</g>
<!-- Broker&#45;&#45;Ruby -->
<g id="edge6" class="edge"><title>Broker&#45;&#45;Ruby</title>
<path fill="none" stroke="black" d="M68.1338,-119.75C62.2842,-123.26 56.3128,-126.843 50.8669,-130.111"/>
</g>
<!-- Python -->
<g id="node9" class="node"><title>Python</title>
<ellipse fill="none" stroke="black" cx="172.173" cy="-141.05" rx="35.6194" ry="18"/>
<text text-anchor="middle" x="172.173" y="-137.35" font-family="Times,serif" font-size="14.00">Python</text>
</g>
<!-- Broker&#45;&#45;Python -->
<g id="edge8" class="edge"><title>Broker&#45;&#45;Python</title>
<path fill="none" stroke="black" d="M133.235,-119.121C138.261,-121.951 143.364,-124.825 148.149,-127.52"/>
</g>
<!-- Perl -->
<g id="node11" class="node"><title>Perl</title>
<ellipse fill="none" stroke="black" cx="101.632" cy="-183.068" rx="27" ry="18"/>
<text text-anchor="middle" x="101.632" y="-179.368" font-family="Times,serif" font-size="14.00">Perl</text>
</g>
<!-- Broker&#45;&#45;Perl -->
<g id="edge10" class="edge"><title>Broker&#45;&#45;Perl</title>
<path fill="none" stroke="black" d="M100.666,-127.545C100.878,-139.771 101.124,-153.898 101.315,-164.842"/>
</g>
<!-- PHP -->
<g id="node13" class="node"><title>PHP</title>
<ellipse fill="none" stroke="black" cx="28.4123" cy="-59.8961" rx="27" ry="18"/>
<text text-anchor="middle" x="28.4123" y="-56.1961" font-family="Times,serif" font-size="14.00">PHP</text>
</g>
<!-- Broker&#45;&#45;PHP -->
<g id="edge12" class="edge"><title>Broker&#45;&#45;PHP</title>
<path fill="none" stroke="black" d="M67.2449,-81.8691C61.053,-78.3655 54.7436,-74.7954 49.0605,-71.5796"/>
</g>
</g>
</svg>
